<?xml version="1.0" encoding="UTF-8" standalone="no"?>
<!DOCTYPE svg PUBLIC "-//W3C//DTD SVG 1.1//EN"
 "http://www.w3.org/Graphics/SVG/1.1/DTD/svg11.dtd">
<!-- Generated by graphviz version 2.40.1 (20161225.0304)
 -->
<!-- Title: state transitions Pages: 1 -->
<svg width="475pt" height="352pt"
 viewBox="0.00 0.00 475.00 352.00" xmlns="http://www.w3.org/2000/svg" xmlns:xlink="http://www.w3.org/1999/xlink">
<g id="graph0" class="graph" transform="scale(1 1) rotate(0) translate(4 348)">
<title>state transitions</title>
<polygon fill="#ffffff" stroke="transparent" points="-4,4 -4,-348 471,-348 471,4 -4,4"/>
<g id="clust1" class="cluster state regular">
<title>cluster_next_state</title>
<path fill="none" stroke="#000000" stroke-width="2" d="M20,-8C20,-8 447,-8 447,-8 453,-8 459,-14 459,-20 459,-20 459,-324 459,-324 459,-330 453,-336 447,-336 447,-336 20,-336 20,-336 14,-336 8,-330 8,-324 8,-324 8,-20 8,-20 8,-14 14,-8 20,-8"/>
<text text-anchor="start" x="206.3208" y="-317.2" font-family="Helvetica,sans-Serif" font-size="12.00" fill="#000000">next_state</text>
</g>
<!-- next_state -->
<!-- START -->
<g id="node2" class="node state regular">
<title>START</title>
<polygon fill="#ffffff" fill-opacity="0.003922" stroke="transparent" stroke-width="2" points="373.5,-298 312.5,-298 312.5,-262 373.5,-262 373.5,-298"/>
<text text-anchor="start" x="323.835" y="-276.2" font-family="Helvetica,sans-Serif" font-size="12.00" fill="#000000">START</text>
<path fill="none" stroke="#000000" stroke-width="2" d="M324.8333,-263C324.8333,-263 361.1667,-263 361.1667,-263 366.8333,-263 372.5,-268.6667 372.5,-274.3333 372.5,-274.3333 372.5,-285.6667 372.5,-285.6667 372.5,-291.3333 366.8333,-297 361.1667,-297 361.1667,-297 324.8333,-297 324.8333,-297 319.1667,-297 313.5,-291.3333 313.5,-285.6667 313.5,-285.6667 313.5,-274.3333 313.5,-274.3333 313.5,-268.6667 319.1667,-263 324.8333,-263"/>
</g>
<!-- CHECK -->
<g id="node3" class="node state regular">
<title>CHECK</title>
<polygon fill="#ffffff" fill-opacity="0.003922" stroke="transparent" stroke-width="2" points="293.5,-216 230.5,-216 230.5,-180 293.5,-180 293.5,-216"/>
<text text-anchor="start" x="241.503" y="-194.2" font-family="Helvetica,sans-Serif" font-size="12.00" fill="#000000">CHECK</text>
<path fill="none" stroke="#000000" stroke-width="2" d="M242.8333,-181C242.8333,-181 281.1667,-181 281.1667,-181 286.8333,-181 292.5,-186.6667 292.5,-192.3333 292.5,-192.3333 292.5,-203.6667 292.5,-203.6667 292.5,-209.3333 286.8333,-215 281.1667,-215 281.1667,-215 242.8333,-215 242.8333,-215 237.1667,-215 231.5,-209.3333 231.5,-203.6667 231.5,-203.6667 231.5,-192.3333 231.5,-192.3333 231.5,-186.6667 237.1667,-181 242.8333,-181"/>
</g>
<!-- START&#45;&gt;CHECK -->
<g id="edge1" class="edge transition">
<title>START&#45;&gt;CHECK</title>
<path fill="none" stroke="#000000" d="M325.0235,-261.8015C313.9075,-250.5483 299.4722,-235.9348 287.2221,-223.5335"/>
<polygon fill="#000000" stroke="#000000" points="289.4439,-220.8023 279.9263,-216.1476 284.4638,-225.7216 289.4439,-220.8023"/>
<text text-anchor="start" x="307" y="-236" font-family="Helvetica,sans-Serif" font-size="10.00" fill="#000000">go &#160;&#160;</text>
</g>
<!-- EXP_RES -->
<g id="node4" class="node state regular">
<title>EXP_RES</title>
<polygon fill="#ffffff" fill-opacity="0.003922" stroke="transparent" stroke-width="2" points="93.5,-134 16.5,-134 16.5,-98 93.5,-98 93.5,-134"/>
<text text-anchor="start" x="27.8262" y="-112.2" font-family="Helvetica,sans-Serif" font-size="12.00" fill="#000000">EXP_RES</text>
<path fill="none" stroke="#000000" stroke-width="2" d="M28.8333,-99C28.8333,-99 81.1667,-99 81.1667,-99 86.8333,-99 92.5,-104.6667 92.5,-110.3333 92.5,-110.3333 92.5,-121.6667 92.5,-121.6667 92.5,-127.3333 86.8333,-133 81.1667,-133 81.1667,-133 28.8333,-133 28.8333,-133 23.1667,-133 17.5,-127.3333 17.5,-121.6667 17.5,-121.6667 17.5,-110.3333 17.5,-110.3333 17.5,-104.6667 23.1667,-99 28.8333,-99"/>
</g>
<!-- CHECK&#45;&gt;EXP_RES -->
<g id="edge3" class="edge transition">
<title>CHECK&#45;&gt;EXP_RES</title>
<path fill="none" stroke="#000000" d="M230.4815,-195.6467C183.6843,-191.5739 98.8124,-181.7846 75.304,-163 69.1933,-158.1172 64.8845,-151.0376 61.8608,-143.8485"/>
<polygon fill="#000000" stroke="#000000" points="65.0843,-142.4625 58.4858,-134.1733 58.4749,-144.7681 65.0843,-142.4625"/>
<text text-anchor="start" x="75" y="-154" font-family="Helvetica,sans-Serif" font-size="10.00" fill="#000000">e_r[0] == 1 &#160;&#160;</text>
</g>
<!-- EXP_BASE -->
<g id="node5" class="node state regular">
<title>EXP_BASE</title>
<polygon fill="#ffffff" fill-opacity="0.003922" stroke="transparent" stroke-width="2" points="214,-52 130,-52 130,-16 214,-16 214,-52"/>
<text text-anchor="start" x="140.6548" y="-30.2" font-family="Helvetica,sans-Serif" font-size="12.00" fill="#000000">EXP_BASE</text>
<path fill="none" stroke="#000000" stroke-width="2" d="M142.3333,-17C142.3333,-17 201.6667,-17 201.6667,-17 207.3333,-17 213,-22.6667 213,-28.3333 213,-28.3333 213,-39.6667 213,-39.6667 213,-45.3333 207.3333,-51 201.6667,-51 201.6667,-51 142.3333,-51 142.3333,-51 136.6667,-51 131,-45.3333 131,-39.6667 131,-39.6667 131,-28.3333 131,-28.3333 131,-22.6667 136.6667,-17 142.3333,-17"/>
</g>
<!-- CHECK&#45;&gt;EXP_BASE -->
<g id="edge4" class="edge transition">
<title>CHECK&#45;&gt;EXP_BASE</title>
<path fill="none" stroke="#000000" d="M230.3867,-188.698C204.9838,-179.3656 170.9917,-162.248 154.97,-134 147.0764,-120.0827 150.1208,-113.2475 154.97,-98 157.7753,-89.1794 163.7315,-89.6597 167,-81 169.1905,-75.1966 170.5233,-68.7224 171.3139,-62.4795"/>
<polygon fill="#000000" stroke="#000000" points="174.8152,-62.615 172.1884,-52.351 167.8411,-62.0128 174.8152,-62.615"/>
<text text-anchor="start" x="154" y="-119" font-family="Helvetica,sans-Serif" font-size="10.00" fill="#000000">not (e_r == 0) &#160;&#160;</text>
<text text-anchor="start" x="154" y="-107" font-family="Helvetica,sans-Serif" font-size="10.00" fill="#000000">not (e_r[0] == 1) &#160;&#160;</text>
</g>
<!-- DONE -->
<g id="node6" class="node state regular">
<title>DONE</title>
<polygon fill="#ffffff" fill-opacity="0.003922" stroke="transparent" stroke-width="2" points="451,-134 395,-134 395,-98 451,-98 451,-134"/>
<text text-anchor="start" x="405.6684" y="-112.2" font-family="Helvetica,sans-Serif" font-size="12.00" fill="#000000">DONE</text>
<path fill="none" stroke="#000000" stroke-width="2" d="M407.3333,-99C407.3333,-99 438.6667,-99 438.6667,-99 444.3333,-99 450,-104.6667 450,-110.3333 450,-110.3333 450,-121.6667 450,-121.6667 450,-127.3333 444.3333,-133 438.6667,-133 438.6667,-133 407.3333,-133 407.3333,-133 401.6667,-133 396,-127.3333 396,-121.6667 396,-121.6667 396,-110.3333 396,-110.3333 396,-104.6667 401.6667,-99 407.3333,-99"/>
</g>
<!-- CHECK&#45;&gt;DONE -->
<g id="edge2" class="edge transition">
<title>CHECK&#45;&gt;DONE</title>
<path fill="none" stroke="#000000" d="M286.2387,-179.7898C299.4391,-170.4039 316.3246,-159.2324 332.421,-151 351.6701,-141.1552 357.8329,-141.7931 378,-134 380.4895,-133.038 383.0529,-132.038 385.6337,-131.0243"/>
<polygon fill="#000000" stroke="#000000" points="386.9437,-134.2701 394.9546,-127.3363 384.3682,-127.7611 386.9437,-134.2701"/>
<text text-anchor="start" x="332" y="-154" font-family="Helvetica,sans-Serif" font-size="10.00" fill="#000000">e_r == 0 &#160;&#160;</text>
</g>
<!-- EXP_RES&#45;&gt;EXP_BASE -->
<g id="edge5" class="edge transition">
<title>EXP_RES&#45;&gt;EXP_BASE</title>
<path fill="none" stroke="#000000" d="M50.3708,-97.853C49.0514,-88.3719 49.3381,-77.0919 55.413,-69 63.5491,-58.1625 92.7939,-49.3994 119.9555,-43.3523"/>
<polygon fill="#000000" stroke="#000000" points="120.7746,-46.7564 129.8252,-41.2485 119.3153,-39.9102 120.7746,-46.7564"/>
<text text-anchor="start" x="55" y="-72" font-family="Helvetica,sans-Serif" font-size="10.00" fill="#000000">modmult_done == 1&#39;b1 &#160;&#160;</text>
</g>
<!-- EXP_BASE&#45;&gt;CHECK -->
<g id="edge6" class="edge transition">
<title>EXP_BASE&#45;&gt;CHECK</title>
<path fill="none" stroke="#000000" d="M214.1014,-45.3066C237.5249,-52.8817 262,-63.5391 262,-75 262,-157 262,-157 262,-157 262,-161.0484 262,-165.3216 262,-169.52"/>
<polygon fill="#000000" stroke="#000000" points="258.5001,-169.6312 262,-179.6312 265.5001,-169.6313 258.5001,-169.6312"/>
<text text-anchor="start" x="262" y="-113" font-family="Helvetica,sans-Serif" font-size="10.00" fill="#000000">modmult_done == 1&#39;b1 &#160;&#160;</text>
</g>
<!-- DONE&#45;&gt;START -->
<g id="edge7" class="edge transition">
<title>DONE&#45;&gt;START</title>
<path fill="none" stroke="#000000" d="M395.0715,-134.2078C388.8203,-140.4661 384,-148.1584 384,-157 384,-239 384,-239 384,-239 384,-244.3981 382.201,-249.3338 379.3566,-253.7638"/>
<polygon fill="#000000" stroke="#000000" points="376.5018,-251.7227 372.7966,-261.6485 381.8829,-256.1998 376.5018,-251.7227"/>
<text text-anchor="middle" x="385.3895" y="-195" font-family="Helvetica,sans-Serif" font-size="10.00" fill="#000000"> </text>
</g>
</g>
</svg>
